<svg xmlns="http://www.w3.org/2000/svg" xmlns:xlink="http://www.w3.org/1999/xlink" viewBox="0 0 368.02 360.06"><defs><style>.a,.b,.c,.h{fill:none;}.a,.c{clip-rule:evenodd;}.b,.d,.g{fill-rule:evenodd;}.c{clip-path:url(#a);}.d,.k{fill:#fff;}.e{clip-path:url(#b);}.f,.h{stroke:#000;}.f,.h,.m{stroke-linecap:square;stroke-miterlimit:10;}.f,.m{stroke-width:0;}.g{fill:#7f7f7f;}.h{stroke-width:3px;}.i{clip-path:url(#d);}.j{clip-path:url(#e);}.k{font-size:40.03px;font-family:NotoSansKR-Bold-KSCpc-EUC-H, Noto Sans KR;}.l{clip-path:url(#f);}.m{fill:#44546a;stroke:#44546a;}.n{clip-path:url(#g);}.o{clip-path:url(#h);}</style></defs><polygon class="d" points="8.72 188.59 76.76 1.56 293.14 1.56 361.17 188.59 8.72 188.59"/><g class="e"><path class="f" d="M380.75,190.16h-8.14v-3h8.14v3Zm-10.86,0h-8.14v-3h8.14v3Zm-10.85,0h-8.15v-3H359v3Zm-10.86,0H340v-3h8.15v3Zm-10.86,0h-8.15v-3h8.15v3Zm-10.86,0h-8.15v-3h8.15v3Zm-10.86,0h-8.14v-3h8.14v3Zm-10.86,0H296.6v-3h8.14v3Zm-10.86,0h-8.14v-3h8.14v3Zm-10.86,0h-8.14v-3H283v3Zm-10.86,0H264v-3h8.14v3Zm-10.85,0h-8.15v-3h8.15v3Zm-10.86,0H242.3v-3h8.15v3Zm-10.86,0h-8.15v-3h8.15v3Zm-10.86,0h-8.15v-3h8.15v3Zm-10.86,0h-8.14v-3h8.14v3Zm-10.86,0h-8.14v-3H207v3Zm-10.86,0H188v-3h8.14v3Zm-10.86,0h-8.14v-3h8.14v3Zm-10.86,0h-8.14v-3h8.14v3Zm-10.86,0h-8.14v-3h8.14v3Zm-10.85,0h-8.15v-3h8.15v3Zm-10.86,0h-8.15v-3h8.15v3Zm-10.86,0h-8.15v-3H131v3Zm-10.86,0H112v-3h8.15v3Zm-10.86,0h-8.14v-3h8.14v3Zm-10.86,0H90.28v-3h8.14v3Zm-10.86,0H79.42v-3h8.14v3Zm-10.86,0H68.56v-3H76.7v3Zm-10.86,0H57.7v-3h8.14v3Zm-10.85,0H46.84v-3H55v3Zm-10.86,0H36v-3h8.15v3Zm-10.86,0H25.12v-3h8.15v3Zm-10.86,0H14.16l1.52-4.09,2.6,1.08-.76,2-1.3-2h6.19v3Zm-5.65-6.85,3.15-8.42,2.5,1.2-3.15,8.3-2.5-1.08ZM21,172.13l3-8.3L26.53,165l-3,8.29L21,172.13Zm4.12-11.06,3.15-8.3,2.5,1.09-3.15,8.41-2.5-1.2ZM29.25,150l3.15-8.41,2.5,1.2-3.15,8.29L29.25,150Zm4.23-11.18,3.15-8.29,2.5,1.2L36,140l-2.5-1.2Zm4.13-11.06,3.15-8.29,2.5,1.08L40.11,129l-2.5-1.2Zm4.24-11.06L45,108.3l2.5,1.2-3.15,8.3-2.49-1.09ZM46,105.54l3.15-8.3,2.5,1.2-3.15,8.3-2.5-1.2Zm4.24-11.06,3-8.3,2.5,1.09-3,8.41-2.49-1.2Zm4.12-11.06L57.48,75l2.5,1.2L56.83,84.5l-2.5-1.08Zm4.13-11.18L61.61,64l2.5,1.2-3,8.29-2.61-1.2Zm4.23-11.06,3.15-8.29L68.34,54l-3.15,8.41-2.5-1.2Zm4.13-11.06L70,41.83l2.5,1.08-3.15,8.3-2.5-1.09Zm4.24-11.18,3.15-8.29,2.49,1.2-3.15,8.3-2.49-1.21Zm4.12-11,3.15-8.3,2.5,1.2-3.15,8.3-2.5-1.2Zm4.24-11.06,3-8.3,2.6,1.09-3.14,8.29-2.5-1.08ZM83.54,5.77,85.72,0h4.34V3.13H86.58l1.2-1L86,6.85l-2.5-1.08ZM92.77,0h8.15V3.13H92.77V0Zm10.86,0h8.15V3.13h-8.15V0Zm10.86,0h8.15V3.13h-8.15V0Zm10.86,0h8.15V3.13h-8.15V0Zm10.86,0h8.14V3.13h-8.14V0Zm10.86,0h8.14V3.13h-8.14V0Zm10.86,0h8.14V3.13h-8.14V0Zm10.86,0h8.14V3.13h-8.14V0Zm10.86,0h8.14V3.13h-8.14V0ZM190.5,0h8.15V3.13H190.5V0Zm10.86,0h8.15V3.13h-8.15V0Zm10.86,0h8.15V3.13h-8.15V0Zm10.86,0h8.15V3.13h-8.15V0Zm10.86,0h8.14V3.13h-8.14V0ZM244.8,0h8.14V3.13H244.8V0Zm10.86,0h8.14V3.13h-8.14V0Zm10.86,0h8.14V3.13h-8.14V0Zm10.86,0h8.14V3.13h-8.14V0Zm10.86,0h8.14V3.13h-8.14V0Zm10.85,0h8.15V3.13h-8.15V0ZM310,0h1.41l3.26,8.89-2.5,1.21-2.93-7.94,1.2,1H310V0Zm5.76,11.66L318.86,20l-2.5,1.21-3.15-8.3,2.5-1.2Zm4.12,11.06L323,31.13l-2.49,1.08-3.15-8.29,2.49-1.2Zm4.24,11.18,3.15,8.29-2.61,1.2-3-8.41,2.5-1.08ZM328.2,45l3.15,8.3-2.5,1.2-3.15-8.29L328.2,45ZM332.43,56l3,8.42L333,65.51l-3.14-8.29,2.6-1.21Zm4.13,11.18,3.15,8.3-2.5,1.08-3.15-8.3,2.5-1.08Zm4.12,11.06,3.15,8.29-2.49,1.21-3.15-8.3,2.49-1.2Zm4.24,11.06,3.15,8.29-2.5,1.2-3.15-8.29,2.5-1.2Zm4.13,11.18,3.14,8.29-2.49,1.08-3.15-8.29,2.5-1.08Zm4.23,11.06,3.15,8.29-2.61,1.2-3-8.29,2.5-1.2Zm4.13,11,3.15,8.3-2.5,1.2-3.15-8.29,2.5-1.21Zm4.23,11.18,3,8.3-2.5,1.08-3.14-8.3,2.6-1.08Zm4.13,11.06,3.15,8.3-2.5,1.2-3.15-8.42,2.5-1.08Zm4.12,11.06,3.15,8.29-2.49,1.21-3.15-8.3,2.49-1.2ZM374.13,167l3.15,8.41-2.5,1.08-3.15-8.29,2.5-1.2Zm4.13,11.18,3.15,8.29-2.5,1.2-3.15-8.41,2.5-1.08Z" transform="translate(-13.38)"/></g><polygon class="g" points="160.21 35.82 160.21 358.56 211.39 358.56 211.39 35.82 160.21 35.82 160.21 35.82"/><g class="e"><rect class="h" x="160.94" y="35.82" width="48.43" height="322.74"/></g><polygon class="g" points="74 188.59 138.08 1.56 232.05 1.56 296.01 188.59 74 188.59"/><g class="i"><polygon class="h" points="74 188.59 138.08 1.56 232.05 1.56 296.01 188.59 74 188.59"/></g><g class="j"><text class="k" transform="translate(130.19 157.36) scale(0.96 1)">접혀짐</text></g><g class="l"><path class="m" d="M13.38,223.69H145.13v4.57H13.38v-4.57Zm129.71-4.56L155.36,226l-12.27,6.85v-13.7Z" transform="translate(-13.38)"/></g><g class="n"><path class="m" d="M381.3,223.69H247.67v4.57H381.3v-4.57Zm-131.6-4.56L237.52,226l12.18,6.85v-13.7Z" transform="translate(-13.38)"/></g><g class="o"><polygon points="185.05 40.56 182.62 39.6 180.19 38.76 177.65 38.15 175.23 37.67 176.96 39.48 178.46 41.28 179.96 43.21 181.12 45.38 182.16 47.43 183.08 49.6 183.66 51.88 184.24 54.17 184.59 56.46 184.7 58.87 184.59 61.16 184.35 63.69 183.89 65.98 183.31 68.39 182.39 70.67 181.35 72.96 180.08 75.25 178.69 77.3 177.08 79.23 175.34 81.03 173.5 82.6 171.53 84.05 169.57 85.37 167.37 86.45 165.18 87.54 162.87 88.38 160.56 88.98 158.13 89.47 155.59 89.83 153.16 89.95 150.74 89.95 148.19 89.71 150.16 91.27 152.12 92.84 154.32 94.16 156.51 95.37 159.63 96.57 162.64 97.54 165.75 98.14 168.87 98.5 171.99 98.5 175 98.26 178.12 97.78 181 96.93 183.89 95.85 186.66 94.53 189.21 92.96 191.63 91.15 193.94 89.11 196.02 86.82 197.75 84.29 199.37 81.52 200.64 78.75 201.68 75.73 202.26 72.84 202.72 69.83 202.72 66.94 202.49 63.93 201.91 61.16 201.1 58.27 199.95 55.5 198.56 52.85 196.95 50.44 195.1 48.15 192.9 45.98 190.48 43.93 187.82 42.13 185.05 40.56 185.05 40.56"/><polygon points="219.59 75.25 219.47 74.89 219.59 74.41 221.21 72.12 221.32 71.64 221.21 71.28 220.74 70.92 220.28 70.92 217.63 71.52 217.16 71.52 216.82 71.28 215.08 68.87 214.62 68.63 214.16 68.63 213.81 68.87 213.58 69.35 213.35 72.12 213.24 72.6 212.77 72.84 210.12 73.45 209.65 73.81 209.54 74.17 209.65 74.65 210 74.89 211.16 75.49 212.66 76.34 212.77 76.46 212.89 76.58 213 76.82 213 77.06 213 79.83 213.24 80.31 213.58 80.55 214.04 80.55 214.51 80.31 216.35 78.14 216.93 77.78 217.39 77.78 220.28 78.87 220.74 78.87 221.21 78.5 221.32 78.14 221.32 77.66 219.59 75.25 219.59 75.25 219.59 75.25"/><polygon points="211.27 54.66 213.7 50.68 214.28 50.08 214.62 50.08 215.08 50.08 219.82 50.8 220.28 50.8 220.63 50.68 221.21 50.08 221.32 49.72 221.32 49.35 221.21 48.99 220.97 48.63 217.74 45.26 217.39 44.66 217.39 43.81 219.24 39.6 219.36 38.88 219.24 38.51 219.01 38.15 218.78 38.03 218.32 37.91 217.97 37.79 217.51 37.91 213.47 39.84 213.12 39.96 212.66 39.96 212.08 39.6 208.73 36.47 208.38 36.23 207.92 36.1 207 36.1 206.53 36.71 206.3 37.43 206.88 41.77 207 42.25 206.77 42.61 206.53 42.97 206.19 43.21 202.15 45.02 201.57 45.62 201.45 45.98 201.45 46.34 201.57 46.83 201.8 47.07 202.15 47.31 202.49 47.43 204.46 48.03 207 48.75 207.46 48.99 207.81 49.23 207.92 49.48 208.15 49.84 208.84 54.41 209.08 54.77 209.31 55.14 209.65 55.38 210 55.38 210.46 55.5 210.81 55.38 211.27 54.66 211.27 54.66 211.27 54.66"/></g></svg>