<svg xmlns="http://www.w3.org/2000/svg" xmlns:xlink="http://www.w3.org/1999/xlink" viewBox="0 0 366.32 360.06"><defs><style>.a,.b,.c,.f{fill:none;}.a,.c{clip-rule:evenodd;}.b,.d,.l{fill-rule:evenodd;}.c{clip-path:url(#a);}.d{fill:#ffa347;}.e{clip-path:url(#b);}.f{stroke:#000;stroke-width:3px;}.f,.h{stroke-linecap:square;stroke-miterlimit:10;}.g{clip-path:url(#d);}.h{fill:#44546a;stroke:#44546a;stroke-width:0;}.i{clip-path:url(#e);}.j{font-size:43.18px;fill:#fff;font-family:NotoSansKR-Bold-KSCpc-EUC-H, Noto Sans KR;}.k{clip-path:url(#g);}</style></defs><polygon class="d" points="157.78 35.73 157.78 358.56 210.07 358.56 210.07 35.73 157.78 35.73 157.78 35.73"/><g class="e"><rect class="f" x="159.95" y="35.74" width="47.94" height="322.82"/></g><polygon class="d" points="3.23 188.56 81.59 1.5 285.07 1.5 363.43 188.56 3.23 188.56"/><g class="e"><polygon class="f" points="3.28 188.56 81.62 1.5 285.04 1.5 363.38 188.56 3.28 188.56"/></g><g class="g"><path class="h" d="M240.82,223.74H369v4.47H240.82v-4.47Zm126-4.48L380.05,226l-13.27,6.71V219.26Z" transform="translate(-13.73)"/></g><g class="i"><path class="h" d="M152.67,223.74H25.07v4.47h127.6v-4.47ZM27.34,219.26,13.73,226l13.61,6.71V219.26Z" transform="translate(-13.73)"/></g><g class="e"><text class="j" transform="translate(123.22 160.08) scale(1.01 1)">펼쳐짐</text></g><g class="k"><polygon class="l" points="145.1 62.68 145.1 68.7 162.62 68.7 162.62 62.68 145.1 62.68 145.1 62.68"/><polygon class="l" points="213.4 62.68 213.4 68.7 231.03 68.7 231.03 62.68 213.4 62.68 213.4 62.68"/><polygon points="209.49 65.63 209.49 68 209.01 70.12 208.54 72.25 207.83 74.38 206.88 76.26 205.82 78.04 204.64 79.81 203.22 81.34 201.79 82.76 200.02 84.06 198.24 85.12 196.47 86.07 194.46 86.9 192.32 87.37 190.31 87.72 188.06 87.84 185.81 87.72 183.8 87.37 181.67 86.9 179.66 86.07 177.88 85.12 176.11 84.06 174.45 82.76 172.91 81.34 171.49 79.81 170.31 78.04 169.13 76.26 168.3 74.38 167.47 72.25 167 70.12 166.64 68 166.52 65.63 166.64 63.51 167 61.26 167.47 59.14 168.3 57.13 169.13 55.12 170.31 53.35 171.49 51.58 172.91 50.04 174.45 48.62 176.11 47.32 177.88 46.14 179.66 45.2 181.67 44.49 183.8 44.02 185.81 43.66 188.06 43.54 190.31 43.66 192.32 44.02 194.46 44.49 196.47 45.2 198.24 46.14 200.02 47.32 201.79 48.62 203.22 50.04 204.64 51.58 205.82 53.35 206.88 55.12 207.83 57.13 208.54 59.14 209.01 61.26 209.49 63.51 209.49 65.63 209.49 65.63"/><polygon class="l" points="185.1 91.86 185.1 109.93 190.91 109.93 190.91 91.86 185.1 91.86 185.1 91.86"/><polygon class="l" points="185.1 21.34 185.1 39.41 190.91 39.41 190.91 21.34 185.1 21.34 185.1 21.34"/><polygon points="172.09 86.31 159.66 99.06 155.51 94.81 168.06 82.05 172.09 86.31"/><polygon points="220.5 36.46 208.07 49.33 203.93 45.08 216.35 32.32 220.5 36.46"/><polygon points="172.2 44.96 168.06 49.21 155.63 36.46 159.78 32.2 172.2 44.96"/><polygon points="220.38 94.93 216.35 99.18 203.93 86.42 208.07 82.05 220.38 94.93"/></g></svg>